<svg id="Layer_1" data-name="Layer 1" xmlns="http://www.w3.org/2000/svg" viewBox="0 0 573.94 192.68"><title>Artboard 1</title><polygon points="134.88 66.6 68.79 2.91 68.79 66.18 134.88 129.87 134.88 66.6" style="fill:#636466;fill-rule:evenodd"/><polygon points="2.69 66.6 68.78 2.91 68.78 66.18 2.69 129.87 2.69 66.6" style="fill:#eb2227;fill-rule:evenodd"/><polygon points="25.59 107.13 69.26 148.22 69.26 190.46 25.59 146.63 25.59 107.13" style="fill:#ffd10a;fill-rule:evenodd"/><polygon points="69.26 148.25 112.67 106.93 112.67 64.67 69.26 108.76 69.26 148.25" style="fill:#f69320;fill-rule:evenodd"/><path d="M211.4,114.56v2.52H161.88v-2.52h3.18a13.36,13.36,0,0,0,6.6-1.46,6.11,6.11,0,0,0,2.78-3.32c.54-1.08.8-4,.8-8.66V39.75c0-4.77-.26-7.76-.8-9a6.49,6.49,0,0,0-3.09-3.13,12.78,12.78,0,0,0-6.29-1.33h-3.18V23.76H211.4v2.57h-3.16a13.28,13.28,0,0,0-6.63,1.44,6.53,6.53,0,0,0-2.86,3.31c-.48,1.1-.75,4-.75,8.67v61.37c0,4.76.27,7.75.77,8.95a7.09,7.09,0,0,0,3.18,3.12,12.36,12.36,0,0,0,6.29,1.37Z" style="fill:#636466"/><path d="M235.72,52.76v8.31a38.15,38.15,0,0,1,9.63-7.8,20.74,20.74,0,0,1,9.91-2.44A15.81,15.81,0,0,1,265.8,54.3a16.48,16.48,0,0,1,5.6,8.62q1.11,4,1.11,15.09v25c0,5,.44,8.08,1.38,9.27s2.79,2,5.69,2.34v2.44h-33v-2.44a7,7,0,0,0,5.29-3c.77-1.16,1.15-4,1.15-8.57V74.43c0-5.28-.22-8.61-.63-10a6.12,6.12,0,0,0-2.15-3.19,5.23,5.23,0,0,0-3.31-1.17c-4,0-7.73,2.82-11.18,8.49V103c0,4.84.47,7.89,1.35,9.18s2.61,2.09,5.06,2.43v2.44h-33v-2.44c2.75-.28,4.69-1.16,5.85-2.64.78-1,1.2-4,1.2-9V66.7c0-4.85-.43-7.86-1.35-9.06s-2.81-2-5.7-2.33V52.76Z" style="fill:#636466"/><path d="M304.81,52.76v8.31a38.67,38.67,0,0,1,9.63-7.8,20.75,20.75,0,0,1,9.94-2.44,16,16,0,0,1,10.54,3.47,16.7,16.7,0,0,1,5.55,8.62q1.13,4,1.13,15.09v25c0,5,.44,8.08,1.36,9.27s2.82,2,5.71,2.34v2.44h-33v-2.44a7,7,0,0,0,5.29-3c.75-1.16,1.14-4,1.14-8.57V74.43c0-5.28-.21-8.61-.62-10a6,6,0,0,0-2.16-3.19A5.16,5.16,0,0,0,316,60.1c-4,0-7.69,2.82-11.15,8.49V103c0,4.84.44,7.89,1.34,9.18s2.6,2.09,5.09,2.43v2.44h-33v-2.44q4.13-.42,5.84-2.64c.8-1,1.21-4,1.21-9V66.7c0-4.85-.44-7.86-1.35-9.06s-2.82-2-5.7-2.33V52.76Z" style="fill:#636466"/><path d="M409.55,21.65l.79,31.11h-2.89c-1.35-7.8-4.64-14.07-9.92-18.84s-11-7.11-17.16-7.11c-4.71,0-8.49,1.24-11.23,3.74A11.23,11.23,0,0,0,365,39.21a10.53,10.53,0,0,0,1.47,5.49,23,23,0,0,0,6.48,6.38q3.27,2.3,15.16,8.06,16.63,8.08,22.41,15.23a25.17,25.17,0,0,1,5.73,16.37q0,11.7-9.25,20.15t-23.5,8.41a39.51,39.51,0,0,1-8.44-.88A71.13,71.13,0,0,1,365,115a14.78,14.78,0,0,0-5.49-1.38,6.72,6.72,0,0,0-3.84,1.38,9.61,9.61,0,0,0-3.29,4.19h-2.57V84h2.57q3.06,14.84,11.84,22.67t18.92,7.82c5.18,0,9.33-1.43,12.42-4.22a12.53,12.53,0,0,0,2.87-16.18,20.62,20.62,0,0,0-5.4-5.87A82.13,82.13,0,0,0,380.18,81c-8.61-4.2-14.81-7.74-18.57-10.67a32.85,32.85,0,0,1-8.68-9.84,24.13,24.13,0,0,1-3.05-12,25.22,25.22,0,0,1,8.31-19c5.53-5.19,12.52-7.82,20.91-7.82a35.76,35.76,0,0,1,9,1.08,45.58,45.58,0,0,1,8,3.09c3.12,1.47,5.35,2.23,6.59,2.23a3.82,3.82,0,0,0,2.87-1.11c.72-.73,1.36-2.51,1.94-5.29Z" style="fill:#636466"/><path d="M442.21,29.21V52.76h15.5v6.8h-15.5v39.7c0,3.72.15,6.12.52,7.19a5.43,5.43,0,0,0,1.85,2.64,4.23,4.23,0,0,0,2.43,1c3,0,5.88-2.28,8.61-6.81l2.09,1.53Q452,118,439.32,118a16.37,16.37,0,0,1-10.5-3.42,15.14,15.14,0,0,1-5.48-7.61c-.44-1.56-.68-5.78-.68-12.68V59.56h-8.53V57.14a88.93,88.93,0,0,0,15-12.86,78.82,78.82,0,0,0,10.75-15.07Z" style="fill:#636466"/><path d="M489.51,102.57V81c-5.63,3.27-9.83,6.74-12.58,10.47A12.58,12.58,0,0,0,474.19,99a7.84,7.84,0,0,0,2.34,5.6,6.3,6.3,0,0,0,4.88,1.86q3.48,0,8.1-3.86m0,5q-12,10.41-21.44,10.4a12.73,12.73,0,0,1-9.3-3.63,12.1,12.1,0,0,1-3.67-9.05c0-4.91,2.12-9.34,6.41-13.26s13.6-9.12,28-15.62V70c0-4.87-.28-7.92-.82-9.19a7.57,7.57,0,0,0-3-3.31,9.21,9.21,0,0,0-5-1.42,13.26,13.26,0,0,0-7.5,2,3.54,3.54,0,0,0-1.81,2.88c0,1,.67,2.16,2,3.61,1.74,2,2.67,3.87,2.67,5.71A7.56,7.56,0,0,1,473.41,76a9.42,9.42,0,0,1-6.67,2.38,10.86,10.86,0,0,1-7.35-2.61,8,8,0,0,1-3-6.11,14.2,14.2,0,0,1,4-9.48,25.42,25.42,0,0,1,11.1-6.94,46.56,46.56,0,0,1,14.79-2.38q9.32,0,14.7,3.86c3.6,2.63,5.95,5.41,7,8.45.68,1.91,1,6.37,1,13.3v25a24.64,24.64,0,0,0,.36,5.54,3.37,3.37,0,0,0,1.05,1.71,2.52,2.52,0,0,0,1.61.53c1.21,0,2.44-.83,3.7-2.53l2.07,1.63a24,24,0,0,1-7.22,7.4,15.65,15.65,0,0,1-8.48,2.33c-3.72,0-6.64-.89-8.72-2.59s-3.36-4.32-3.83-7.81" style="fill:#636466"/><path d="M541.62,52.76V67.35q6.5-10,11.35-13.26a17,17,0,0,1,9.45-3.26,8.28,8.28,0,0,1,6.25,2.37A9.07,9.07,0,0,1,571,59.89c0,3.09-.73,5.48-2.26,7.17a7.17,7.17,0,0,1-5.49,2.57,9.57,9.57,0,0,1-6.4-2.36,38.87,38.87,0,0,0-3.23-2.61,3.19,3.19,0,0,0-1.61-.41,5.92,5.92,0,0,0-3.85,1.5,14.1,14.1,0,0,0-4.3,6.69,45.53,45.53,0,0,0-2.24,14.73V102l.07,3.86a15.9,15.9,0,0,0,.47,5,5.32,5.32,0,0,0,2.49,2.72,14.14,14.14,0,0,0,5.53,1.1v2.44H515v-2.44c2.83-.24,4.73-1,5.76-2.34s1.5-4.75,1.5-10.35V66.38c0-3.67-.18-6-.57-7a5.32,5.32,0,0,0-2-2.8A10.18,10.18,0,0,0,515,55.31V52.76Z" style="fill:#636466"/><path d="M162.22,158.76l2.94-.2a5.07,5.07,0,0,0,.42,2.16,2.85,2.85,0,0,0,1.44,1.45,5.11,5.11,0,0,0,2.44.55,4.61,4.61,0,0,0,2.94-.77,2.19,2.19,0,0,0,1-1.82,2.27,2.27,0,0,0-.57-1.43,8.94,8.94,0,0,0-3-1.66,23.38,23.38,0,0,1-3-1.41,4.87,4.87,0,0,1-1.65-1.56,3.81,3.81,0,0,1-.55-2,4.49,4.49,0,0,1,1.63-3.48,6.56,6.56,0,0,1,4.56-1.46,7.27,7.27,0,0,1,5,1.51,5.22,5.22,0,0,1,1.79,3.9l-2.89.19a3.35,3.35,0,0,0-1.12-2.44,4.33,4.33,0,0,0-3-.9,3.7,3.7,0,0,0-2.37.68,1.91,1.91,0,0,0-.84,1.5,1.85,1.85,0,0,0,.7,1.43,15.42,15.42,0,0,0,2.54,1.29,16.93,16.93,0,0,1,4.3,2.29,4.37,4.37,0,0,1,1.4,3.25,4.69,4.69,0,0,1-.78,2.48,5.56,5.56,0,0,1-2.45,2,9.12,9.12,0,0,1-3.81.74,8.63,8.63,0,0,1-5.12-1.49c-1.4-1-2.07-2.55-2-4.74" style="fill:#636466"/><path d="M189,164.6l3.58-17.1h3l-3.6,17.1Zm4.27-20.31L194,141h3l-.71,3.3Z" style="fill:#636466"/><path d="M206.88,164.6l3.64-17.1h2.94l-.59,2.8a11.53,11.53,0,0,1,2.93-2.51,6,6,0,0,1,2.84-.69,4.44,4.44,0,0,1,2.72.86,4.27,4.27,0,0,1,1.42,2.34,9.67,9.67,0,0,1,2.77-2.4,6.37,6.37,0,0,1,3.08-.8,4.61,4.61,0,0,1,3.26,1A3.7,3.7,0,0,1,233,151a15.23,15.23,0,0,1-.36,2.61l-2.35,11h-3l2.4-11.31a10.25,10.25,0,0,0,.28-2,1.7,1.7,0,0,0-.54-1.34,2.15,2.15,0,0,0-1.52-.48,5.36,5.36,0,0,0-2.68.8,5.73,5.73,0,0,0-2.15,2.08,14.86,14.86,0,0,0-1.31,3.91L220,164.6h-3L219.52,153a8.23,8.23,0,0,0,.26-1.66,1.75,1.75,0,0,0-1.93-1.88,5.3,5.3,0,0,0-2.62.8,5.64,5.64,0,0,0-2.23,2.21,12.35,12.35,0,0,0-1.43,4l-1.72,8.09Z" style="fill:#636466"/><path d="M249.6,157.61a8.93,8.93,0,0,0,.24,2.66,3.67,3.67,0,0,0,3.52,2.33c1.69,0,3.06-.94,4.09-2.82A11.55,11.55,0,0,0,259,154a4.9,4.9,0,0,0-1-3.35,3.37,3.37,0,0,0-2.63-1.2,4,4,0,0,0-2.09.59,6.22,6.22,0,0,0-1.78,1.74,10,10,0,0,0-1.38,2.88,10.69,10.69,0,0,0-.5,3m-5.86,13.53,5-23.64h2.73l-.52,2.37a11.18,11.18,0,0,1,2.71-2.17,5.68,5.68,0,0,1,2.57-.6,5.35,5.35,0,0,1,4.09,1.78A7.3,7.3,0,0,1,262,154a13.15,13.15,0,0,1-.87,4.87,10.51,10.51,0,0,1-2.24,3.53,9.44,9.44,0,0,1-2.61,2,6.51,6.51,0,0,1-2.77.63,5.33,5.33,0,0,1-4.83-3.13l-1.95,9.28Z" style="fill:#636466"/><polygon points="273.96 164.6 278.96 140.99 281.92 140.99 276.91 164.6 273.96 164.6" style="fill:#636466"/><path d="M290.91,171.2l.18-2.73a6.87,6.87,0,0,0,1.77.25,2.31,2.31,0,0,0,1.47-.42,6.77,6.77,0,0,0,1.57-2l1-1.69-2.91-17.12h2.91l1.3,8.64c.27,1.69.5,3.41.68,5.12l7.78-13.76h3.07l-11.06,19.34a12.91,12.91,0,0,1-2.83,3.78,4.73,4.73,0,0,1-2.89.9,6,6,0,0,1-2-.32" style="fill:#636466"/><path d="M328.35,164.6,332,147.5h3l-3.61,17.1Zm4.28-20.31.74-3.3h2.94l-.73,3.3Z" style="fill:#636466"/><path d="M346.29,164.6l3.64-17.1h2.66l-.63,3a14.43,14.43,0,0,1,3.25-2.58,6.63,6.63,0,0,1,3.11-.8,4.67,4.67,0,0,1,3.32,1.13,3.93,3.93,0,0,1,1.2,3,19.25,19.25,0,0,1-.41,3L360.2,164.6h-3l2.3-10.84a11.54,11.54,0,0,0,.35-2.32,1.73,1.73,0,0,0-.59-1.4,2.45,2.45,0,0,0-1.72-.54,5.93,5.93,0,0,0-4.07,1.62,10.34,10.34,0,0,0-2.57,5.51l-1.67,8Z" style="fill:#636466"/><path d="M375.27,164.6l3.66-17.1h2.67l-.64,3a14.65,14.65,0,0,1,3.25-2.58,6.79,6.79,0,0,1,3.12-.8,4.71,4.71,0,0,1,3.33,1.13,3.92,3.92,0,0,1,1.18,3,14.89,14.89,0,0,1-.43,3l-2.18,10.38h-3l2.3-10.84a11.15,11.15,0,0,0,.33-2.32,1.82,1.82,0,0,0-.58-1.4,2.5,2.5,0,0,0-1.75-.54,5.83,5.83,0,0,0-4,1.62c-1.19,1.06-2.05,2.91-2.62,5.51l-1.68,8Z" style="fill:#636466"/><path d="M407.79,157.81a5.18,5.18,0,0,0,1.17,3.67,3.93,3.93,0,0,0,3,1.24,4.87,4.87,0,0,0,1.87-.37,5.2,5.2,0,0,0,1.72-1.15,8.51,8.51,0,0,0,1.38-1.77,10.85,10.85,0,0,0,.91-2.14,10.24,10.24,0,0,0,.47-3.07,5.11,5.11,0,0,0-1.15-3.6,3.93,3.93,0,0,0-3-1.26,5.16,5.16,0,0,0-2.55.64,7.83,7.83,0,0,0-2.07,1.91,8.92,8.92,0,0,0-1.33,2.93,11.81,11.81,0,0,0-.43,3m-3,.3a11.82,11.82,0,0,1,3-8.3,8.36,8.36,0,0,1,6.48-2.71,6.8,6.8,0,0,1,5.05,1.94,7.11,7.11,0,0,1,1.9,5.18,12.61,12.61,0,0,1-1.2,5.53,9.12,9.12,0,0,1-3.43,3.9A9.22,9.22,0,0,1,411.9,165a7.72,7.72,0,0,1-3.66-.86,6,6,0,0,1-2.52-2.42,6.87,6.87,0,0,1-.89-3.6" style="fill:#636466"/><path d="M437.69,164.6l-2.84-17.1h2.87l1.49,9.41c.17,1,.37,2.71.58,5,.6-1.21,1.32-2.6,2.2-4.18l5.81-10.27h3.12L441,164.6Z" style="fill:#636466"/><path d="M473.24,155.94a9.26,9.26,0,0,1-1.33.35c-.49.1-1.25.18-2.38.29a15.29,15.29,0,0,0-3.63.59,2.91,2.91,0,0,0-1.62,1.08,2.75,2.75,0,0,0-.54,1.66,2.7,2.7,0,0,0,.87,2,3.45,3.45,0,0,0,2.44.77,5.76,5.76,0,0,0,2.84-.76,5.36,5.36,0,0,0,2.11-2.14,11.62,11.62,0,0,0,1.24-3.88m-1.09,6.53a12.39,12.39,0,0,1-3,1.92,7.87,7.87,0,0,1-3,.6,5.27,5.27,0,0,1-3.87-1.42,4.57,4.57,0,0,1-1.47-3.56,4.93,4.93,0,0,1,.65-2.52,5.08,5.08,0,0,1,1.75-1.76,7.52,7.52,0,0,1,2.69-1,31.92,31.92,0,0,1,3.79-.33,12.89,12.89,0,0,0,4-.58,7.6,7.6,0,0,0,.37-2,1.88,1.88,0,0,0-.78-1.59,4.84,4.84,0,0,0-3-.82,5.39,5.39,0,0,0-3,.82,4.81,4.81,0,0,0-1.72,2.32l-3-.28a7.9,7.9,0,0,1,2.89-3.88,8.88,8.88,0,0,1,5-1.36,7.85,7.85,0,0,1,5.1,1.52,3.58,3.58,0,0,1,1.43,2.92,16,16,0,0,1-.39,3.18l-1,4.27a16.2,16.2,0,0,0-.43,3.27,10.81,10.81,0,0,0,.34,2.34h-3a13.53,13.53,0,0,1-.33-2.13" style="fill:#636466"/><path d="M496.38,162.21l-.5,2.4a8.92,8.92,0,0,1-2.07.27A4.22,4.22,0,0,1,491,164a2.12,2.12,0,0,1-.8-1.77,19.71,19.71,0,0,1,.4-2.57l2.13-9.92h-2.34l.46-2.27h2.34l.92-4.21,3.37-2-1.31,6.22h2.91l-.5,2.27H495.7l-2,9.43a16.39,16.39,0,0,0-.38,2.16,1,1,0,0,0,.3.79,1.5,1.5,0,0,0,1,.27,6.91,6.91,0,0,0,1.76-.21" style="fill:#636466"/><path d="M509,164.6l3.64-17.1h3L512,164.6Zm4.31-20.31.72-3.3H517l-.71,3.3Z" style="fill:#636466"/><path d="M531.36,164.6l-2.85-17.1h2.89l1.49,9.41c.15,1,.37,2.71.6,5,.56-1.21,1.3-2.6,2.19-4.18l5.79-10.27h3.12l-9.94,17.1Z" style="fill:#636466"/><path d="M558.26,154.54H568c0-.32,0-.51,0-.64a4.67,4.67,0,0,0-1.11-3.35,3.83,3.83,0,0,0-2.87-1.19,5.31,5.31,0,0,0-3.44,1.3,7.84,7.84,0,0,0-2.34,3.88m8.58,4.25,2.89.28a8.47,8.47,0,0,1-2.84,4,7.9,7.9,0,0,1-5.32,1.89,7.27,7.27,0,0,1-3.53-.87,5.7,5.7,0,0,1-2.45-2.57,8.12,8.12,0,0,1-.85-3.8,11.92,11.92,0,0,1,1.31-5.42,9.39,9.39,0,0,1,3.41-3.92A8.53,8.53,0,0,1,564,147.1a6.58,6.58,0,0,1,5,1.92,7,7,0,0,1,1.84,5.16,14.38,14.38,0,0,1-.22,2.59H557.8c0,.33-.07.64-.07.91a5.21,5.21,0,0,0,1.13,3.64,3.47,3.47,0,0,0,2.73,1.28,5.36,5.36,0,0,0,3-1,6.27,6.27,0,0,0,2.26-2.82" style="fill:#636466"/></svg>